<svg xmlns="http://www.w3.org/2000/svg" width="392" height="440" viewBox="0 0 392 440" fill="none"><path d="M127.159 8.97992C127.159 5.21958 129.823 3.67902 133.08 5.55919L376.907 146.329C380.164 148.209 382.831 152.826 382.831 156.589L382.829 347.292C382.829 351.054 380.164 352.595 376.905 350.715L133.08 209.947C129.821 208.065 127.157 203.448 127.157 199.687L127.159 8.97992Z" fill="white"></path><path opacity="0.2" d="M127.159 8.97992C127.159 5.21958 129.823 3.67902 133.08 5.55919L376.907 146.329C380.164 148.209 382.831 152.826 382.831 156.589L382.829 347.292C382.829 351.054 380.164 352.595 376.905 350.715L133.08 209.947C129.821 208.065 127.157 203.448 127.157 199.687L127.159 8.97992Z" fill="#438BE3"></path><path d="M127.157 182.946L127.159 11.2509L382.831 158.86L382.829 330.557L127.157 182.946Z" fill="url(#paint0_linear_1461_2552)"></path><path d="M382.829 347.294L382.831 156.591C382.831 152.828 380.164 148.211 376.907 146.331L133.08 5.56125C131.468 4.63242 130.003 4.54239 128.931 5.13979V5.1357L137.145 0.444482C138.223 -0.226569 139.739 -0.161099 141.409 0.800468L385.235 141.57C388.492 143.452 391.158 148.068 391.158 151.832L391.156 342.533C391.156 344.485 390.44 345.839 389.294 346.427L381.193 351.054L381.191 351.046C382.203 350.404 382.829 349.113 382.829 347.294Z" fill="url(#paint1_linear_1461_2552)"></path><path d="M165.268 309.132L210.715 288.7C220.881 283.759 228.115 275.739 232.569 267.39L283.352 296.707C278.988 311.495 267.885 321.988 267.885 321.988C267.885 321.988 239.996 343.607 232.653 348.528C225.312 353.45 217.471 349.278 217.471 349.278L165.247 317.913C165.247 317.913 162.332 316.512 161.661 314.353L161.509 313.651C161.188 310.906 165.268 309.132 165.268 309.132Z" fill="white"></path><path d="M165.247 317.915L217.471 349.28C217.471 349.28 225.312 353.45 232.653 348.53C239.996 343.609 267.885 321.99 267.885 321.99C267.885 321.99 278.988 311.497 283.352 296.709L287.735 299.24C284.809 309.095 278.209 318.662 267.171 326.581C235.783 349.098 232.436 350.931 232.436 350.931C232.436 350.931 227.086 355.637 217.348 350.931C207.611 346.224 164.932 319.838 164.932 319.838C164.932 319.838 161.389 317.919 161.389 316.065L161.524 313.336C161.391 316.063 165.247 317.915 165.247 317.915Z" fill="white"></path><path opacity="0.3" d="M165.247 317.915L217.471 349.28C217.471 349.28 225.312 353.45 232.653 348.53C239.996 343.609 267.885 321.99 267.885 321.99C267.885 321.99 278.988 311.497 283.352 296.709L287.735 299.24C284.809 309.095 278.209 318.662 267.171 326.581C235.783 349.098 232.436 350.931 232.436 350.931C232.436 350.931 227.086 355.637 217.348 350.931C207.611 346.224 164.932 319.838 164.932 319.838C164.932 319.838 161.389 317.919 161.389 316.065L161.524 313.336C161.391 316.063 165.247 317.915 165.247 317.915Z" fill="#438BE3"></path><path opacity="0.2" d="M232.571 267.39L283.354 296.707C280.641 305.9 275.328 313.424 271.693 317.811L216.03 285.674C223.451 280.794 228.938 274.203 232.571 267.39Z" fill="#438BE3"></path><path d="M44.6668 112.529L46.6616 105.56L62.0405 117.199C62.0405 117.199 60.8682 123.321 61.6681 126.197C62.466 129.072 63.7979 132.159 58.4745 132.693C53.1511 133.225 42.2915 120.874 42.2915 120.874C42.2915 120.874 45.8186 116.557 44.6668 112.529Z" fill="#D9A782"></path><path d="M74.0335 267.14L84.9504 265.064C84.9504 265.064 89.5066 265.735 93.7272 265.735C97.9479 265.735 104.38 267.21 104.982 269.687C105.585 272.165 102.373 274.444 99.0895 275.582C95.8059 276.719 92.6777 276.987 88.9726 277.122C85.288 277.257 81.2023 279.428 78.3217 279.935C73.7676 280.739 72.0245 278.595 71.6889 277.188C71.3534 275.782 74.0335 268.816 74.0335 267.14Z" fill="#003096"></path><path d="M78.3217 279.935C81.2044 279.428 85.29 277.255 88.9726 277.122C92.6777 276.987 95.8059 276.719 99.0895 275.582C101.813 274.636 104.482 272.908 104.969 270.929C104.973 270.944 104.978 270.958 104.982 270.97C105.585 273.448 102.373 275.727 99.0895 276.864C95.8059 278.004 92.6777 278.27 88.9726 278.405C85.288 278.538 81.2023 280.711 78.3217 281.218C73.7676 282.022 72.0245 279.878 71.689 278.47C71.6358 278.239 71.6624 277.857 71.7442 277.374C72.182 278.775 73.9599 280.705 78.3217 279.935Z" fill="#414E52"></path><path d="M57.9999 184.139L76.6052 180.947C76.6052 180.947 76.5786 188.151 77.1392 189.519C77.6977 190.888 82.7163 203.474 83.7188 215.056C84.7213 226.638 83.1705 230.924 83.0805 239.863C82.9884 248.801 85.3882 263.204 87.2889 265.35C89.1895 267.498 80.8914 274.52 76.6032 275.066C72.317 275.614 71.4578 275.066 71.6583 273.243C71.8588 271.418 69.8845 259.994 68.211 253.635C67.0591 249.245 66.0587 238.733 67.1532 233.26C67.1532 233.26 62.7402 212.959 59.6387 204.477C56.5392 195.995 57.9999 184.139 57.9999 184.139Z" fill="#1D65BD"></path><path d="M51.8703 287.562C51.8703 287.562 55.201 293.348 57.3656 296.179C59.5301 299.009 66.4841 305.838 61.529 308.42C56.5759 311.002 46.9152 307.796 44.3333 301.632C41.7514 295.472 40.7121 294.056 40.0042 292.89C39.2963 291.724 40.2129 285.477 40.2129 285.477L41.6491 286.914C41.6491 286.914 41.7104 291.805 44.2105 292.431C46.7085 293.057 47.4164 289.6 48.7074 288.892C49.9963 288.184 51.8703 287.562 51.8703 287.562Z" fill="#003096"></path><path d="M40.0023 292.892C40.7101 294.058 41.7515 295.474 44.3314 301.634C46.9133 307.798 56.5739 311.002 61.527 308.422C62.5316 307.898 63.041 307.199 63.2047 306.397C63.442 307.747 63.0451 308.936 61.527 309.727C56.5739 312.309 46.9133 309.103 44.3314 302.941C41.7494 296.781 40.7101 295.363 40.0023 294.199C39.7527 293.788 39.7077 292.751 39.7486 291.578C39.7752 292.17 39.8529 292.642 40.0023 292.892Z" fill="#414E52"></path><path d="M36.3524 255.464C36.4649 252.001 40.9188 245.276 40.1291 236.143C39.3394 227.008 36.7043 193.985 39.7772 187.486L64.6204 190.383C64.6204 190.383 62.3658 215.635 61.2774 223.61C60.189 231.585 57.648 242.459 55.4753 250.796C53.3046 259.133 51.539 270.401 52.1978 276.725C52.8565 283.049 55.7617 290.948 53.3025 292.528C50.8434 294.109 39.3434 295.862 39.1245 287.139C38.9077 278.413 35.8266 271.85 36.3524 255.464Z" fill="#367ED6"></path><path d="M66.9711 119.081C66.9711 119.081 67.3169 115.763 70.0686 116.277C72.8203 116.788 79.5329 123.212 80.8504 128.376C82.17 133.538 85.556 138.865 87.6775 142.31C89.7991 145.756 92.3217 148.804 92.3217 148.804L102.304 147.998L103.509 155.566C103.509 155.566 90.775 161.245 88.1931 161.245C85.6112 161.245 82.4585 156.196 80.7931 153.902C79.1298 151.607 72.3047 142.31 72.3047 142.31L66.9711 119.081Z" fill="#DBE8F5"></path><path d="M74.0826 128.777C75.6886 129.464 75.8032 132.05 75.6886 132.709C75.5741 133.366 77.0082 139.448 78.958 143.751C80.9077 148.053 81.5972 149.385 82.9168 150.038C84.2364 150.692 88.3097 149.428 89.4554 149.199C90.6011 148.97 92.7248 149.412 91.176 150.222C89.6273 151.034 84.7519 154.248 85.7851 155.825C86.8162 157.401 100.34 151.697 102.698 150.475L103.509 155.568C103.509 155.568 90.775 161.247 88.1931 161.247C85.6112 161.247 82.4585 156.198 80.7931 153.904C79.1298 151.609 72.3047 142.312 72.3047 142.312L69.9438 132.04C70.8481 130.784 72.8653 128.253 74.0826 128.777Z" fill="#C2CFDC"></path><path d="M77.0124 182.267C77.0124 182.267 74.1297 189.329 67.0652 191.78C60.0028 194.231 39.9654 193.22 39.2453 188.754C38.5251 184.286 42.6599 175.409 40.5199 171.661C38.3778 167.913 27.1357 144.819 26.127 142.31C25.1184 139.802 27.4241 135.332 27.4241 135.332L40.7797 122.713C40.7797 122.713 55.8006 128.153 59.4934 127.586C63.1862 127.017 62.1919 118.247 62.1919 118.247C62.1919 118.247 68.4012 116.131 69.819 116.285C71.2368 116.436 73.4136 124.691 73.2111 127.347C73.0086 130.002 76.2492 137.496 75.3879 142.914C74.5266 148.331 74.1215 150.811 74.1215 150.811C74.1215 150.811 74.678 163.972 75.0319 167.062C75.3859 170.149 77.6957 180.9 77.0124 182.267Z" fill="#DBE8F5"></path><path d="M63.8654 136.013L64.5815 131.238L59.4934 127.586L57.4638 132.202L56.7805 134.538L61.3224 136.789C61.975 140.952 67.4723 167.647 66.9731 181.843L70.2302 185.164L72.4663 180.526C72.4643 180.526 69.9744 151.192 63.8654 136.013Z" fill="#F78D1B"></path><path d="M107.075 136.844C106.516 136.795 105.374 136.799 105.127 138.143C104.881 139.487 104.634 141.545 104.634 141.545C104.634 141.545 102.932 143.45 102.349 145.578C101.765 147.705 101.385 148.98 101.385 148.98C101.385 148.98 100.043 151.736 100.198 152.922C100.354 154.109 101.274 155.856 101.991 155.991C102.707 156.126 103.631 156.006 104.476 155.813C105.321 155.621 110.166 151.13 110.659 149.923C111.152 148.714 108.218 144.279 108.218 144.279C108.218 144.279 108.329 141.838 108.441 141.412C108.556 140.987 108.599 136.979 107.075 136.844Z" fill="#D9A782"></path><path d="M54.0124 223.898C54.0124 223.898 54.9495 221.466 53.6605 221.408C52.3716 221.349 51.0807 221.672 49.7324 221.877C48.3842 222.082 47.0646 222.374 46.1583 222.082C45.2499 221.789 44.8673 220.997 44.8673 220.997C44.8673 220.997 49.9739 220.265 49.6036 219.473C49.2332 218.681 38.1855 216.541 38.1855 216.541C38.1855 216.541 40.9392 224.952 45.3645 225.159C49.7918 225.365 54.0124 223.898 54.0124 223.898Z" fill="#D9A782"></path><path d="M69.3464 102.51C69.3648 102.761 70.263 103.786 70.9279 104.543C71.5928 105.3 73.3768 107.242 72.6546 107.854C71.9345 108.465 70.3694 109.095 70.3694 109.095C70.3694 109.095 70.8379 110.517 70.441 110.931C70.0461 111.344 69.9009 111.847 69.9377 112.224C69.9745 112.602 69.5776 113.341 69.5776 113.341C69.5776 113.341 69.236 114.186 69.3444 114.869C69.4508 115.552 69.4876 117.154 67.1758 117.827C64.8639 118.502 59.4116 118.502 56.0297 116.757C52.6479 115.012 51.1871 111.154 49.0983 108.077C47.0115 105.002 39.7649 101.753 40.8636 96.4456C41.9622 91.1366 46.1829 87.1307 54.6774 86.9077C63.1719 86.6847 67.6443 90.932 68.9414 95.0463C70.2364 99.1605 69.8804 101.082 69.6124 101.44C69.3464 101.796 69.3464 102.51 69.3464 102.51Z" fill="#FFCDA8"></path><path d="M56.6721 107.61C55.7637 107.753 52.0198 105.777 50.8352 107.61C49.6506 109.443 48.063 112.215 44.6648 112.528C44.6648 112.528 43.5764 108.566 42.9503 107.939C42.3243 107.313 39.7465 105.063 40.2825 98.1315C40.8185 91.2 44.2188 87.7568 50.8352 86.5068C57.4516 85.2547 62.64 86.3288 66.2612 88.9659C69.8845 91.6031 70.5535 94.6903 67.7363 95.3614C64.9191 96.0304 60.8519 97.4175 60.8948 99.6536C60.9378 101.89 60.4918 103.007 59.0617 103.946C57.6316 104.883 57.8117 107.43 56.6721 107.61Z" fill="#575F6F"></path><path d="M59.4914 103.629C59.3563 103.737 59.2193 103.842 59.0638 103.944C57.6316 104.883 57.8117 107.432 56.6721 107.61C55.7637 107.753 52.0198 105.777 50.8352 107.61C49.6506 109.443 48.063 112.215 44.6648 112.529C44.6648 112.529 43.5764 108.566 42.9504 107.94C42.5678 107.557 41.4609 106.563 40.7756 104.273C44.9062 104.94 51.6086 105.405 59.4914 103.629Z" fill="#575F6F"></path><path d="M43.2388 118.247C43.2388 118.247 49.223 125.827 59.4913 127.586L57.4066 136.449C57.4066 136.449 43.6766 127.384 40.2109 122.715L43.2388 118.247Z" fill="#E8F5FF"></path><path d="M61.5577 120.561L62.1899 118.247C65.5799 122.371 65.6024 133.435 65.6024 133.435L59.4913 127.586C62.2124 125.557 61.5577 120.561 61.5577 120.561Z" fill="#E8F5FF"></path><path d="M29.4168 149.344L35.0757 147.192C35.0757 147.192 39.7812 145.3 41.2134 148.111C42.6475 150.922 47.5208 156.198 48.5561 157.346C49.5892 158.493 48.8998 158.78 48.5561 162.164C48.2123 165.548 47.1792 174.267 47.4676 179.601C47.6661 183.308 47.5106 189.601 48.5663 192.629C43.5641 191.999 39.5582 190.706 39.2432 188.752C38.523 184.284 42.6578 175.407 40.5178 171.659C39.0386 169.069 33.2078 157.233 29.4168 149.344Z" fill="#C2CFDC"></path><path d="M53.9224 108.414C53.5787 107.761 52.7133 106.401 51.4182 106.804C50.1212 107.207 49.0491 109.085 50.0332 110.738C51.0173 112.393 54.0124 114.046 54.3684 113.197C54.7264 112.348 54.3459 109.218 53.9224 108.414Z" fill="#FFCDA8"></path><path d="M55.2072 210.86L49.6771 205.342L50.6366 200.524L57.0955 201.21L62.3228 205.995L61.6967 211.558L55.2072 210.86Z" fill="#FDE4BE"></path><path d="M135.295 103.267C134.718 101.966 133.106 100.787 131.691 100.636C131.212 100.583 130.815 100.658 130.522 100.828L118.319 108.598C118.319 108.598 118.687 109.46 120.113 109.763C122.548 110.278 124.956 109.085 124.956 109.085C124.956 109.085 125.418 111.09 126.77 112.907C128.082 114.666 129.88 114.229 129.88 114.229C129.88 114.229 129.16 116.215 129.213 117.316C129.258 118.343 129.553 119.45 129.553 119.45L135.422 104.584L135.488 104.253C135.514 103.964 135.455 103.631 135.295 103.267Z" fill="white"></path><path d="M58.7281 206.316C59.303 207.617 58.6238 208.548 57.208 208.397C55.7943 208.243 54.1801 207.065 53.6052 205.766C53.0324 204.465 53.7116 203.532 55.1253 203.685C56.539 203.836 58.1512 205.015 58.7281 206.316Z" fill="#62696D"></path><path d="M137.734 97.2621L135.424 104.586C135.553 104.232 135.52 103.78 135.295 103.269C134.719 101.968 133.106 100.789 131.691 100.638C131.212 100.585 130.815 100.66 130.522 100.83L136.76 96.6136C136.76 96.6136 137.274 96.3026 137.544 96.5092C137.744 96.6647 137.832 96.9552 137.734 97.2621Z" fill="#FF0077"></path><path d="M129.555 119.452L129.882 114.229L124.958 109.087L118.321 108.6L50.5957 200.514L57.0955 201.21L62.3227 205.995L61.6557 211.55L129.555 119.452Z" fill="#2A71C9"></path><path d="M124.958 109.087L118.321 108.6L50.5957 200.514L57.0955 201.21L124.958 109.087Z" fill="#5EA5FD"></path><path d="M129.555 119.452L129.882 114.229L62.2962 205.98L61.6559 211.549L129.555 119.452Z" fill="#044BA3"></path><path opacity="0.3" d="M124.958 109.088L124.493 108.944L56.5882 201.155L57.0956 201.21L124.958 109.088Z" fill="#FCB52B"></path><path d="M54.0388 199.518C52.308 199.332 51.017 199.796 50.3194 200.702L46.1908 206.251C46.9314 205.582 48.0934 205.261 49.5829 205.422C53.112 205.803 57.1404 208.743 58.5766 211.988C59.2374 213.485 59.2333 214.788 58.6891 215.717L62.832 210.242C63.6688 209.305 63.7997 207.83 63.0284 206.083C61.5943 202.838 57.57 199.898 54.0388 199.518Z" fill="#DBF8FF"></path><path d="M49.5829 205.424C47.8521 205.238 46.5632 205.7 45.8635 206.607L40.3825 213.835C41.1211 213.168 42.2811 212.847 43.7726 213.006C47.3017 213.387 51.326 216.329 52.7622 219.576C53.4251 221.071 53.423 222.374 52.8768 223.305L58.3802 216.151C59.2149 215.216 59.3459 213.737 58.5766 211.994C57.1404 208.743 53.1141 205.803 49.5829 205.424Z" fill="#F78D1B"></path><path d="M52.7642 219.576C54.2004 222.823 52.5024 225.147 48.9732 224.766C45.442 224.386 41.4157 221.446 39.9795 218.199C38.5412 214.952 40.2414 212.628 43.7726 213.008C47.3017 213.387 51.328 216.329 52.7642 219.576Z" fill="#C0701A"></path><path d="M35.5197 212.53C35.5197 212.53 38.3635 212.97 39.857 213.733C41.3505 214.494 42.9647 215.873 43.7851 216.165C44.6055 216.458 49.5872 217.162 50.4076 218.099C51.2301 219.036 50.9641 220.472 50.0864 220.619C49.2067 220.767 46.7741 220.151 45.5446 219.739C44.315 219.328 42.0277 219.24 42.087 220.034C42.1463 220.826 43.5825 222.847 45.8105 223.404C48.0385 223.96 51.3201 223.608 51.3201 223.608C51.3201 223.608 54.5424 222.436 55.1009 222.876C55.6574 223.316 55.9213 224.576 53.546 225.368C51.1728 226.159 49.0042 226.804 46.8355 226.716C44.6669 226.628 41.238 225.572 39.4499 224.371C37.6617 223.168 32.856 218.453 31.8596 217.837C30.8633 217.219 29.7789 214.025 29.603 213.088L35.5197 212.53Z" fill="#FFCDA8"></path><path d="M35.8225 212.529L29.112 213.618L28.1381 207.709C28.1381 207.709 26.8758 204.383 26.5894 202.087C26.3009 199.794 25.0979 176.503 24.8095 172.201C24.523 167.898 24.9813 149.485 24.8095 147.593C24.6376 145.701 25.2759 136.783 27.4241 135.332C29.5723 133.881 36.4567 133.652 39.4948 137.554C42.5371 141.453 39.4948 149.6 38.8647 154.876C38.2346 160.155 36.8577 173.347 36.8577 175.986C36.8577 178.625 37.5451 189.466 37.3733 193.024C37.2014 196.58 37.316 205.299 36.915 205.872C36.514 206.445 36.514 206.789 36.514 206.789L35.8225 212.529Z" fill="#DBE8F5"></path><path d="M31.0596 202.145L31.7491 205.643C31.7491 205.643 34.642 206.247 36.9068 205.881C36.5119 206.449 36.5119 206.789 36.5119 206.789L35.8225 212.528L31.6979 213.197L31.4627 207.018H29.4168L30.8898 206.214L31.0596 202.145Z" fill="#C2CFDC"></path><path d="M108.153 139.978C107.911 140.6 108.018 141.277 108.556 141.948C109.092 142.621 110.078 143.74 110.078 143.74V145.51C110.078 145.51 108.556 143.54 107.76 143.192C106.964 142.844 106.269 143.135 105.968 143.841C105.667 144.547 106.383 145.443 107.189 146.249C107.995 147.055 108.556 148.041 108.556 148.108C108.556 148.174 108.353 149.541 108.353 149.541C108.353 149.541 106.136 147.347 105.688 146.875C105.239 146.406 104.276 146.474 103.897 147.01C103.517 147.548 103.94 148.509 104.546 149.25C105.149 149.989 106.291 151.533 106.404 151.959C106.516 152.384 106.338 153.593 105.935 153.593C105.53 153.593 103.404 151.623 102.956 151.175C102.508 150.727 101.299 149.719 100.761 150.39C100.223 151.063 100.941 151.914 101.367 152.452C101.792 152.99 103.717 155.678 104.478 155.811C105.239 155.946 106.561 154.805 106.786 154.512C107.009 154.222 108.711 154.199 109.159 153.303C109.607 152.407 109.517 152.071 109.517 152.071C109.517 152.071 111.666 151.49 111.713 150.214C111.758 148.937 111.758 148.802 111.758 148.802C111.758 148.802 112.339 148.767 112.451 147.9C112.564 147.032 113.124 144.119 113.059 143.648C112.989 143.178 111.154 140.872 110.571 140.312C109.986 139.755 108.488 139.104 108.153 139.978Z" fill="#FFCDA8"></path><path d="M111.51 147.145C111.162 146.597 110.362 145.772 110.078 145.482V143.743C110.078 143.743 109.391 142.961 108.851 142.311L109.675 142.577C109.675 142.577 110.616 143.896 111.625 144.412C112.042 144.626 112.488 144.956 112.879 145.275C112.723 146.263 112.517 147.409 112.453 147.9C112.341 148.767 111.76 148.802 111.76 148.802C111.76 148.802 111.936 147.818 111.51 147.145Z" fill="#D9A782"></path><path d="M108.353 149.541C108.353 149.541 108.556 148.174 108.556 148.108C108.556 148.096 108.535 148.053 108.505 147.998L108.556 148.018C108.556 148.018 110.905 149.991 110.716 151.445C110.71 151.488 110.706 151.521 110.7 151.562C110.125 151.906 109.519 152.073 109.519 152.073C109.519 152.073 108.644 150.281 108.353 149.541Z" fill="#D9A782"></path><path d="M105.035 153.031C105.446 153.358 105.794 153.598 105.933 153.598C106.336 153.598 106.514 152.388 106.402 151.963C106.338 151.717 105.927 151.098 105.477 150.476C105.829 150.619 106.197 150.834 106.449 151.157C106.882 151.722 107.431 153.242 107.598 154.22C107.206 154.324 106.872 154.4 106.784 154.516C106.711 154.612 106.508 154.805 106.252 155.011C105.931 154.465 105.436 153.641 105.035 153.031Z" fill="#D9A782"></path><path opacity="0.4" d="M316.979 316.066L218.981 259.486L218.985 75.0211L316.983 131.598L316.979 316.066Z" fill="#438BE3"></path><path d="M316.983 131.655L187.057 56.6287C181.741 59.6975 177.431 67.1609 177.431 73.3006L177.433 253.097C177.433 259.235 173.124 266.698 167.807 269.769L100.309 309.944C95.0039 313.007 90.2042 313.275 86.7487 311.233L216.675 386.26C220.13 388.302 224.93 388.034 230.235 384.971L297.735 344.796C303.05 341.727 307.361 334.264 307.361 328.124L307.359 148.327C307.357 142.19 311.665 134.726 316.983 131.655Z" fill="white"></path><mask id="mask0_1461_2552" style="mask-type:luminance" maskUnits="userSpaceOnUse" x="167" y="56" width="150" height="289"><g opacity="0.1"><path d="M316.983 131.655L187.057 56.6287C181.741 59.6975 177.431 67.1609 177.431 73.3006L177.433 253.097C177.433 259.235 173.124 266.698 167.807 269.769L297.733 344.796C303.048 341.727 307.359 334.264 307.359 328.124L307.357 148.327C307.357 142.19 311.665 134.726 316.983 131.655Z" fill="url(#paint2_linear_1461_2552)"></path></g></mask><g mask="url(#mask0_1461_2552)"><path opacity="0.1" d="M316.983 131.655L187.057 56.6287C181.741 59.6975 177.431 67.1609 177.431 73.3006L177.433 253.097C177.433 259.235 173.124 266.698 167.807 269.769L297.733 344.796C303.048 341.727 307.359 334.264 307.359 328.124L307.357 148.327C307.357 142.19 311.665 134.726 316.983 131.655Z" fill="#438BE3"></path></g><path opacity="0.2" d="M186.044 92.937L301.495 159.59V147.965L186.044 81.3123V92.937Z" fill="#438BE3"></path><path d="M180.931 95.6583L296.383 162.313L299.159 160.842V149.218L183.708 82.5646L180.931 84.0335V95.6583Z" fill="#2355E7"></path><path opacity="0.4" d="M180.931 95.6582L296.383 162.313V150.688L180.931 84.0334V95.6582Z" fill="#2355E7"></path><path d="M286.278 150.668C286.278 152.409 287.502 154.526 289.009 155.398C290.517 156.267 291.739 155.562 291.739 153.821C291.739 152.08 290.517 149.962 289.009 149.09C287.502 148.219 286.278 148.927 286.278 150.668Z" fill="white"></path><path d="M278.019 145.899C278.019 147.64 279.24 149.758 280.748 150.627C282.256 151.497 283.477 150.791 283.477 149.05C283.477 147.309 282.256 145.191 280.748 144.322C279.242 143.452 278.019 144.158 278.019 145.899Z" fill="white"></path><path d="M269.76 141.13C269.76 142.871 270.981 144.989 272.491 145.858C273.999 146.728 275.22 146.024 275.22 144.283C275.22 142.542 273.999 140.424 272.491 139.555C270.983 138.683 269.76 139.389 269.76 141.13Z" fill="white"></path><path d="M184.401 92.1003C184.401 93.8414 185.622 95.9589 187.13 96.8284C188.638 97.6999 189.862 96.9941 189.862 95.253C189.862 93.512 188.64 91.3945 187.132 90.5229C185.622 89.6534 184.401 90.3593 184.401 92.1003Z" fill="white"></path><path opacity="0.2" d="M186.4 163.197L241.888 195.233V144.319L186.4 112.283V163.197Z" fill="#438BE3"></path><path d="M180.931 166.53L236.42 198.566L239.8 196.453L239.802 145.539L184.311 113.504L180.931 115.616V166.53Z" fill="white"></path><path opacity="0.2" d="M180.931 166.53L236.42 198.566V147.652L180.931 115.616V166.53Z" fill="#438BE3"></path><path opacity="0.2" d="M184.391 165.241L232.686 193.122V148.953L184.393 121.072L184.391 165.241Z" fill="#438BE3"></path><path opacity="0.2" d="M195.205 141.025L209.948 166.014L221.976 163.197L232.686 179.551V193.122L184.391 165.241L184.393 147.269L195.205 141.025Z" fill="#438BE3"></path><path opacity="0.2" d="M212.409 147.92C212.409 151.181 214.699 155.144 217.522 156.775C220.345 158.406 222.635 157.084 222.635 153.823C222.635 150.562 220.345 146.597 217.522 144.968C214.697 143.338 212.409 144.659 212.409 147.92Z" fill="#438BE3"></path><path opacity="0.2" d="M240.999 285.337L300.299 319.573V265.338L240.999 231.102V285.337Z" fill="#438BE3"></path><path d="M235.665 288.549L294.963 322.785L297.588 321.199L297.59 266.965L238.29 232.729L235.665 234.314V288.549Z" fill="white"></path><path opacity="0.4" d="M235.665 288.549L294.963 322.785V268.55L235.665 234.314V288.549Z" fill="#438BE3"></path><path d="M272.565 284.14C272.565 279.516 269.318 273.894 265.314 271.582C261.31 269.27 258.063 271.144 258.063 275.768C258.063 280.392 261.31 286.016 265.314 288.328C269.318 290.64 272.565 288.766 272.565 284.14ZM270.005 282.362L263.198 283.976V272.887L270.005 282.362Z" fill="#2355E7"></path><path opacity="0.1" d="M247.84 316.839L243.104 319.572L168.948 276.758L173.682 274.023L247.84 316.839Z" fill="#438BE3"></path><path d="M247.84 314.437L243.104 317.17L168.948 274.356V270.884L173.683 268.151L247.84 310.965V314.437Z" fill="white"></path><path opacity="0.2" d="M247.84 314.437L243.104 317.17L168.948 274.356V270.884L173.683 268.151L247.84 310.965V314.437Z" fill="#438BE3"></path><path d="M247.84 310.965L243.104 313.701L168.948 270.884L173.683 268.151L247.84 310.965Z" fill="white"></path><path opacity="0.1" d="M238.128 322.711L233.394 325.444L159.237 282.63L163.973 279.897L238.128 322.711Z" fill="#438BE3"></path><path d="M238.128 320.309L233.394 323.042L159.237 280.228V276.758L163.973 274.023L238.128 316.839V320.309Z" fill="white"></path><path opacity="0.2" d="M238.128 320.309L233.394 323.042L159.237 280.228V276.758L163.973 274.023L238.128 316.839V320.309Z" fill="#438BE3"></path><path d="M238.128 316.839L233.394 319.572L159.237 276.758L163.973 274.023L238.128 316.839Z" fill="white"></path><path opacity="0.1" d="M227.368 328.599L222.634 331.332L148.477 288.518L153.213 285.785L227.368 328.599Z" fill="#438BE3"></path><path d="M227.369 326.197L222.634 328.93L148.477 286.116V282.646L153.213 279.911L227.369 322.727V326.197Z" fill="white"></path><path opacity="0.2" d="M227.369 326.197L222.634 328.93L148.477 286.116V282.646L153.213 279.911L227.369 322.727V326.197Z" fill="#438BE3"></path><path d="M227.369 322.727L222.634 325.46L148.477 282.646L153.213 279.911L227.369 322.727Z" fill="white"></path><path opacity="0.1" d="M249.589 152.659L300.857 182.418V178.159L249.591 148.399L249.589 152.659Z" fill="#438BE3"></path><path d="M244.122 155.991L295.388 185.751L298.77 183.637V179.38L247.502 149.62L244.122 151.732V155.991Z" fill="white"></path><path opacity="0.2" d="M244.122 155.991L295.388 185.751L295.39 181.491L244.122 151.732V155.991Z" fill="#438BE3"></path><path opacity="0.1" d="M187.478 176.017L209.17 188.386L209.172 184.127L187.478 171.757V176.017Z" fill="#438BE3"></path><path d="M182.009 179.35L203.704 191.719L207.084 189.606V185.348L185.389 172.979L182.009 175.092V179.35Z" fill="white"></path><path opacity="0.2" d="M182.009 179.35L203.704 191.719V187.459L182.009 175.092V179.35Z" fill="#438BE3"></path><path opacity="0.1" d="M242.126 221.343L263.82 233.71V229.453L242.126 217.083V221.343Z" fill="#438BE3"></path><path d="M236.657 224.676L258.352 237.043L261.731 234.93L261.734 230.672L240.039 218.305L236.657 220.416V224.676Z" fill="white"></path><path opacity="0.2" d="M236.657 224.676L258.352 237.043V232.786L236.657 220.416V224.676Z" fill="#438BE3"></path><path opacity="0.1" d="M268.949 223.284L299.609 240.776V236.519L268.949 219.027V223.284Z" fill="#438BE3"></path><path d="M263.481 226.617L294.14 244.109L297.52 241.996V237.738L266.86 220.246L263.481 222.359V226.617Z" fill="white"></path><path opacity="0.2" d="M263.481 226.617L294.14 244.109V239.852L263.481 222.359V226.617Z" fill="#438BE3"></path><path opacity="0.1" d="M213.111 190.516L264.379 220.273V216.016L213.111 186.256V190.516Z" fill="#438BE3"></path><path d="M207.642 193.848L258.91 223.606L262.29 221.495L262.292 217.235L211.024 187.478L207.644 189.589L207.642 193.848Z" fill="white"></path><path opacity="0.2" d="M207.642 193.849L258.91 223.606L258.912 219.348L207.644 189.589L207.642 193.849Z" fill="#438BE3"></path><path opacity="0.1" d="M187.478 188.848L238.744 218.608L238.746 214.35L187.478 184.591V188.848Z" fill="#438BE3"></path><path d="M182.009 192.181L233.277 221.94L236.657 219.827V215.57L185.389 185.81L182.009 187.923V192.181Z" fill="white"></path><path opacity="0.2" d="M182.009 192.181L233.277 221.941V217.683L182.009 187.924V192.181Z" fill="#438BE3"></path><path opacity="0.1" d="M249.589 164.302L300.857 194.059V189.802L249.591 160.042L249.589 164.302Z" fill="#438BE3"></path><path d="M244.122 167.634L295.388 197.392L298.77 195.281V191.023L247.502 161.264L244.122 163.375V167.634Z" fill="white"></path><path opacity="0.2" d="M244.122 167.634L295.388 197.392L295.39 193.134L244.122 163.375V167.634Z" fill="#438BE3"></path><path opacity="0.1" d="M249.589 175.943L300.857 205.702V201.445L249.591 171.685L249.589 175.943Z" fill="#438BE3"></path><path d="M244.122 179.277L295.388 209.035L298.77 206.924V202.664L247.502 172.905L244.122 175.018V179.277Z" fill="white"></path><path opacity="0.2" d="M244.122 179.277L295.388 209.035L295.39 204.777L244.122 175.018V179.277Z" fill="#438BE3"></path><path opacity="0.1" d="M249.589 187.586L300.857 217.346V213.088L249.591 183.329L249.589 187.586Z" fill="#438BE3"></path><path d="M244.122 190.919L295.388 220.678L298.77 218.567V214.307L247.502 184.548L244.122 186.661V190.919Z" fill="white"></path><path opacity="0.2" d="M244.122 190.919L295.388 220.678L295.39 216.421L244.122 186.661V190.919Z" fill="#438BE3"></path><path opacity="0.1" d="M186.433 201.935L227.821 226.198V221.94L186.435 197.676L186.433 201.935Z" fill="#438BE3"></path><path d="M180.966 205.268L222.352 229.53L225.734 227.419V223.16L184.346 198.897L180.966 201.009V205.268Z" fill="white"></path><path opacity="0.2" d="M180.966 205.268L222.352 229.53L222.354 225.273L180.966 201.009V205.268Z" fill="#438BE3"></path><path opacity="0.1" d="M186.433 214.53L227.821 238.794V234.534L186.435 210.27L186.433 214.53Z" fill="#438BE3"></path><path d="M180.966 217.863L222.352 242.127L225.734 240.013V235.756L184.346 211.492L180.966 213.603V217.863Z" fill="white"></path><path opacity="0.2" d="M180.966 217.863L222.352 242.127L222.354 237.867L180.966 213.603V217.863Z" fill="#438BE3"></path><path opacity="0.1" d="M186.433 227.125L227.821 251.389V247.132L186.435 222.867L186.433 227.125Z" fill="#438BE3"></path><path d="M180.966 230.458L222.352 254.722L225.734 252.608V248.351L184.346 224.087L180.966 226.2V230.458Z" fill="white"></path><path opacity="0.2" d="M180.966 230.457L222.352 254.722L222.354 250.462L180.966 226.2V230.457Z" fill="#438BE3"></path><path opacity="0.1" d="M186.433 239.719L227.821 263.983V259.726L186.435 235.462L186.433 239.719Z" fill="#438BE3"></path><path d="M180.966 243.054L222.352 267.316L225.734 265.203V260.945L184.346 236.681L180.966 238.794V243.054Z" fill="white"></path><path opacity="0.2" d="M180.966 243.054L222.352 267.316L222.354 263.058L180.966 238.794V243.054Z" fill="#438BE3"></path><path opacity="0.1" d="M186.433 252.315L227.821 276.578V272.32L186.435 248.056L186.433 252.315Z" fill="#438BE3"></path><path d="M180.966 255.648L222.352 279.91L225.734 277.799V273.539L184.346 249.277L180.966 251.389V255.648Z" fill="white"></path><path opacity="0.2" d="M180.966 255.648L222.352 279.91L222.354 275.653L180.966 251.389V255.648Z" fill="#438BE3"></path><path opacity="0.1" d="M249.589 199.229L283.911 219.178L283.913 214.921L249.591 194.969L249.589 199.229Z" fill="#438BE3"></path><path d="M244.122 202.562L278.444 222.511L281.824 220.4V216.14L247.502 196.191L244.122 198.304V202.562Z" fill="white"></path><path opacity="0.2" d="M244.122 202.562L278.444 222.511V218.254L244.122 198.304V202.562Z" fill="#438BE3"></path><path opacity="0.1" d="M281.227 339.513C282.156 340.052 282.166 340.929 281.243 341.465L266.503 350.031C265.578 350.569 264.058 350.569 263.127 350.031L248.29 341.467C247.361 340.931 247.355 340.05 248.28 339.513L263.02 330.947C263.943 330.411 265.459 330.413 266.39 330.951L281.227 339.513Z" fill="#438BE3"></path><path d="M281.227 330.313C282.156 330.849 282.166 331.727 281.243 332.265L266.502 340.831C265.578 341.367 264.058 341.367 263.127 340.831L248.29 332.265C247.361 331.727 247.355 330.847 248.28 330.311L263.02 321.745C263.943 321.207 265.459 321.211 266.39 321.749L281.227 330.313Z" fill="white"></path><path d="M281.245 332.265L266.505 340.831C265.58 341.367 264.06 341.367 263.129 340.831L248.292 332.265C247.824 331.993 247.59 331.637 247.592 331.281L247.582 334.712C247.58 335.068 247.815 335.426 248.284 335.696L263.119 344.262C264.048 344.8 265.57 344.8 266.492 344.262L281.233 335.696C281.689 335.432 281.918 335.082 281.918 334.73L281.929 331.299C281.931 331.649 281.701 331.999 281.245 332.265Z" fill="white"></path><path opacity="0.2" d="M281.245 332.265L266.505 340.831C265.58 341.367 264.06 341.367 263.129 340.831L248.292 332.265C247.824 331.993 247.59 331.637 247.592 331.281L247.582 334.712C247.58 335.068 247.815 335.426 248.284 335.696L263.119 344.262C264.048 344.8 265.57 344.8 266.492 344.262L281.233 335.696C281.689 335.432 281.918 335.082 281.918 334.73L281.929 331.299C281.931 331.649 281.701 331.999 281.245 332.265Z" fill="#438BE3"></path><path opacity="0.1" d="M255.221 354.06C256.15 354.598 256.16 355.476 255.238 356.012L240.497 364.578C239.572 365.116 238.052 365.116 237.123 364.578L222.287 356.014C221.358 355.478 221.352 354.596 222.276 354.06L237.017 345.494C237.94 344.958 239.456 344.96 240.387 345.498L255.221 354.06Z" fill="#438BE3"></path><path d="M255.221 344.86C256.15 345.396 256.16 346.274 255.238 346.812L240.497 355.378C239.572 355.914 238.052 355.914 237.123 355.378L222.287 346.812C221.358 346.274 221.352 345.394 222.276 344.858L237.017 336.292C237.94 335.754 239.456 335.758 240.387 336.296L255.221 344.86Z" fill="white"></path><path d="M255.238 346.811L240.497 355.378C239.572 355.914 238.052 355.914 237.123 355.378L222.287 346.811C221.818 346.539 221.585 346.183 221.587 345.827L221.577 349.258C221.577 349.614 221.81 349.972 222.278 350.242L237.113 358.809C238.042 359.347 239.564 359.347 240.489 358.809L255.23 350.242C255.686 349.978 255.915 349.629 255.915 349.277L255.925 345.846C255.923 346.196 255.694 346.546 255.238 346.811Z" fill="white"></path><path opacity="0.2" d="M255.238 346.811L240.497 355.378C239.572 355.914 238.052 355.914 237.123 355.378L222.287 346.811C221.818 346.539 221.585 346.183 221.587 345.827L221.577 349.258C221.577 349.614 221.81 349.972 222.278 350.242L237.113 358.809C238.042 359.347 239.564 359.347 240.489 358.809L255.23 350.242C255.686 349.978 255.915 349.629 255.915 349.277L255.925 345.846C255.923 346.196 255.694 346.546 255.238 346.811Z" fill="#438BE3"></path><g opacity="0.2"><path d="M352.929 384.934C354.695 385.955 354.715 387.621 352.962 388.639L324.976 404.902C323.223 405.923 320.334 405.923 318.568 404.902L290.401 388.641C288.635 387.623 288.627 385.949 290.38 384.93L318.366 368.667C320.119 367.649 322.996 367.655 324.761 368.674L352.929 384.934Z" fill="#438BE3"></path></g><path d="M321.801 409.835C320.361 409.835 318.918 409.516 317.818 408.879L283.739 389.206C282.637 388.57 282.029 387.706 282.029 386.776C282.027 385.851 282.626 384.994 283.715 384.361L317.572 364.686C319.751 363.42 323.315 363.424 325.516 364.694L359.593 384.368C360.699 385.008 361.311 385.873 361.311 386.804C361.311 387.723 360.716 388.576 359.633 389.204L325.774 408.879C324.68 409.516 323.241 409.835 321.801 409.835ZM321.525 364.142C320.164 364.142 318.808 364.441 317.777 365.04L283.917 384.715C282.96 385.272 282.434 386.002 282.436 386.776C282.436 387.553 282.972 388.292 283.942 388.852L318.02 408.527C320.109 409.735 323.493 409.735 325.567 408.527L359.427 388.852C360.378 388.3 360.902 387.573 360.902 386.806C360.902 386.027 360.364 385.288 359.388 384.726L325.312 365.052C324.262 364.445 322.891 364.142 321.525 364.142Z" fill="#0080FF"></path><path d="M352.962 371.17L324.976 387.432C323.223 388.451 320.334 388.451 318.568 387.432L290.401 371.172C289.513 370.656 289.069 369.979 289.071 369.302L289.052 375.814C289.05 376.491 289.494 377.168 290.384 377.682L318.55 393.942C320.316 394.963 323.202 394.963 324.958 393.942L352.943 377.68C353.811 377.176 354.245 376.513 354.247 375.848L354.265 369.334C354.263 370.001 353.829 370.666 352.962 371.17Z" fill="#C7DEEB"></path><path d="M352.929 367.464C354.695 368.483 354.715 370.151 352.962 371.169L324.976 387.432C323.223 388.451 320.334 388.451 318.568 387.432L290.401 371.172C288.635 370.151 288.627 368.477 290.38 367.46L318.366 351.198C320.119 350.177 322.996 350.183 324.761 351.204L352.929 367.464Z" fill="white"></path><path opacity="0.2" d="M276.492 408.654C277.421 409.19 277.432 410.068 276.509 410.604L261.787 419.16C260.864 419.696 259.344 419.696 258.415 419.16L243.595 410.604C242.666 410.068 242.662 409.188 243.584 408.652L258.307 400.096C259.229 399.56 260.743 399.564 261.672 400.1L276.492 408.654Z" fill="#438BE3"></path><path opacity="0.2" d="M73.2376 358.235C74.1665 358.771 74.1767 359.649 73.254 360.185L58.5318 368.741C57.6091 369.277 56.089 369.277 55.1602 368.741L40.3418 360.185C39.413 359.649 39.4089 358.769 40.3316 358.233L55.0538 349.677C55.9765 349.141 57.4904 349.143 58.4193 349.679L73.2376 358.235Z" fill="#438BE3"></path><path opacity="0.2" d="M151.943 251.446C152.872 251.982 152.882 252.86 151.959 253.396L137.237 261.952C136.314 262.488 134.794 262.488 133.865 261.952L119.045 253.396C118.116 252.86 118.112 251.98 119.035 251.444L133.757 242.888C134.68 242.352 136.194 242.354 137.123 242.892L151.943 251.446Z" fill="#438BE3"></path><path opacity="0.2" d="M214.107 413.593C214.715 413.945 214.721 414.518 214.117 414.868L204.488 420.463C203.884 420.815 202.89 420.815 202.282 420.463L192.589 414.868C191.981 414.518 191.977 413.941 192.582 413.591L202.212 407.995C202.816 407.646 203.806 407.646 204.414 407.997L214.107 413.593Z" fill="#438BE3"></path><path opacity="0.2" d="M243.713 435.014C244.124 435.251 244.129 435.64 243.721 435.877L237.199 439.668C236.79 439.905 236.117 439.905 235.706 439.668L229.14 435.877C228.729 435.64 228.727 435.249 229.136 435.011L235.659 431.22C236.068 430.983 236.737 430.983 237.15 431.223L243.713 435.014Z" fill="#438BE3"></path><path opacity="0.2" d="M81.2269 337.541C81.6381 337.779 81.6422 338.167 81.235 338.405L74.7127 342.196C74.3036 342.433 73.6305 342.433 73.2193 342.196L66.654 338.405C66.2428 338.167 66.2407 337.777 66.6499 337.539L73.1722 333.748C73.5814 333.511 74.2504 333.511 74.6636 333.75L81.2269 337.541Z" fill="#438BE3"></path><path opacity="0.2" d="M369.093 413.593C369.701 413.945 369.707 414.518 369.104 414.868L359.474 420.463C358.87 420.815 357.876 420.815 357.268 420.463L347.575 414.868C346.967 414.518 346.965 413.941 347.569 413.591L357.199 407.995C357.802 407.646 358.792 407.646 359.4 407.997L369.093 413.593Z" fill="#438BE3"></path><path opacity="0.2" d="M21.9759 358.573C22.5835 358.925 22.5897 359.498 21.9861 359.848L12.3561 365.443C11.7526 365.795 10.7583 365.795 10.1507 365.443L0.457261 359.848C-0.150368 359.498 -0.152413 358.921 0.451123 358.571L10.0811 352.975C10.6847 352.626 11.6749 352.628 12.2825 352.978L21.9759 358.573Z" fill="#438BE3"></path><path opacity="0.2" d="M160.425 430.408C161.033 430.76 161.039 431.333 160.435 431.683L150.805 437.278C150.202 437.63 149.208 437.63 148.6 437.278L138.907 431.683C138.299 431.333 138.297 430.756 138.9 430.406L148.53 424.81C149.134 424.461 150.124 424.463 150.732 424.812L160.425 430.408Z" fill="#438BE3"></path><g opacity="0.2"><path d="M151.595 389.535C153.361 390.556 153.381 392.222 151.628 393.24L123.642 409.503C121.889 410.524 119 410.524 117.234 409.503L89.0666 393.243C87.301 392.224 87.2928 390.55 89.0461 389.531L117.032 373.269C118.783 372.25 121.662 372.256 123.427 373.275L151.595 389.535Z" fill="#438BE3"></path></g><path d="M120.467 414.436C119.027 414.436 117.584 414.117 116.483 413.48L82.4051 393.807C81.3024 393.171 80.6948 392.307 80.6948 391.377C80.6927 390.452 81.2922 389.595 82.3806 388.962L116.238 369.287C118.417 368.021 121.981 368.025 124.182 369.295L158.258 388.969C159.365 389.609 159.977 390.474 159.977 391.405C159.977 392.324 159.382 393.177 158.299 393.805L124.44 413.48C123.347 414.117 121.907 414.436 120.467 414.436ZM120.191 368.743C118.83 368.743 117.474 369.042 116.443 369.641L82.5852 389.316C81.6277 389.873 81.1019 390.603 81.1039 391.377C81.1039 392.154 81.64 392.893 82.6097 393.453L116.688 413.128C118.777 414.335 122.161 414.335 124.235 413.128L158.095 393.453C159.046 392.901 159.57 392.174 159.57 391.407C159.57 390.628 159.032 389.889 158.056 389.325L123.98 369.651C122.93 369.046 121.557 368.743 120.191 368.743Z" fill="#0080FF"></path><path d="M151.628 375.771L123.642 392.033C121.889 393.052 119 393.052 117.234 392.033L89.0665 375.773C88.1786 375.257 87.7346 374.58 87.7367 373.903L87.7183 380.415C87.7162 381.092 88.1602 381.769 89.0501 382.283L117.216 398.543C118.981 399.564 121.868 399.564 123.624 398.543L151.609 382.281C152.477 381.777 152.91 381.113 152.913 380.448L152.931 373.936C152.929 374.603 152.495 375.267 151.628 375.771Z" fill="#C7DEEB"></path><path d="M151.595 372.065C153.361 373.084 153.381 374.752 151.628 375.771L123.642 392.033C121.889 393.052 119 393.052 117.234 392.033L89.0666 375.773C87.301 374.752 87.2928 373.078 89.0461 372.061L117.032 355.799C118.783 354.778 121.662 354.784 123.427 355.805L151.595 372.065Z" fill="white"></path><g opacity="0.4"><path d="M168.412 151.378C169.738 152.143 170.822 154.011 170.818 155.535L170.749 179.838C170.742 181.36 169.652 181.984 168.328 181.217L147.186 169.011C145.854 168.242 144.776 166.368 144.782 164.846L144.852 140.543C144.856 139.018 145.94 138.403 147.272 139.172L168.412 151.378Z" fill="#438BE3"></path></g><path d="M162.009 155.285L140.866 143.08C140.195 142.691 139.588 142.656 139.148 142.912C137.738 143.73 136.329 144.549 134.921 145.369C135.359 145.115 135.966 145.15 136.64 145.537L157.782 157.745C159.108 158.51 160.192 160.378 160.188 161.902L160.118 186.205C160.116 186.96 159.844 187.496 159.412 187.747L163.639 185.29C164.075 185.039 164.345 184.505 164.347 183.748L164.417 159.445C164.419 157.92 163.334 156.051 162.009 155.285Z" fill="white"></path><path d="M157.782 157.742C159.107 158.507 160.192 160.375 160.188 161.899L160.118 186.203C160.112 187.725 159.022 188.349 157.698 187.581L136.556 175.376C135.224 174.606 134.146 172.732 134.152 171.21L134.221 146.907C134.225 145.383 135.308 144.765 136.642 145.536L157.782 157.742Z" fill="white"></path><g opacity="0.2"><path d="M157.782 157.742C159.107 158.507 160.192 160.375 160.188 161.899L160.118 186.203C160.112 187.725 159.022 188.349 157.698 187.581L136.556 175.376C135.224 174.606 134.146 172.732 134.152 171.21L134.221 146.907C134.225 145.383 135.308 144.765 136.642 145.536L157.782 157.742Z" fill="#438BE3"></path></g><path d="M147.168 156.259C143.43 154.101 140.4 155.85 140.4 160.167C140.4 161.357 140.725 163.303 142.014 166.304C143.632 170.075 147.168 178.813 147.168 178.813C147.168 178.813 150.703 174.157 152.321 172.254C153.61 170.74 153.935 169.171 153.935 167.98C153.935 163.665 150.906 158.417 147.168 156.259ZM147.168 167.724C145.134 166.55 143.485 163.694 143.485 161.345C143.485 158.996 145.134 158.045 147.168 159.219C149.201 160.394 150.85 163.25 150.85 165.599C150.85 167.947 149.201 168.899 147.168 167.724Z" fill="#F78D1B"></path><g opacity="0.4"><path d="M355.93 156.744C357.256 157.509 358.34 159.377 358.336 160.901L358.267 185.204C358.26 186.726 357.17 187.35 355.846 186.583L334.704 174.377C333.372 173.608 332.294 171.734 332.3 170.212L332.37 145.909C332.374 144.385 333.458 143.767 334.79 144.538L355.93 156.744Z" fill="#438BE3"></path></g><path d="M349.529 160.652L328.386 148.444C327.715 148.055 327.108 148.02 326.668 148.276C325.258 149.094 323.849 149.915 322.441 150.733C322.879 150.479 323.486 150.514 324.16 150.901L345.302 163.107C346.627 163.872 347.712 165.74 347.708 167.264L347.636 191.569C347.634 192.324 347.362 192.86 346.928 193.112L351.155 190.654C351.591 190.403 351.861 189.869 351.863 189.112L351.932 164.809C351.937 163.285 350.852 161.417 349.529 160.652Z" fill="white"></path><path d="M345.3 163.109C346.625 163.874 347.71 165.742 347.706 167.266L347.636 191.569C347.63 193.091 346.539 193.715 345.216 192.948L324.074 180.74C322.742 179.971 321.664 178.097 321.67 176.575L321.739 152.272C321.743 150.747 322.826 150.132 324.159 150.901L345.3 163.109Z" fill="white"></path><g opacity="0.2"><path d="M345.3 163.109C346.625 163.874 347.71 165.742 347.706 167.266L347.636 191.569C347.63 193.091 346.539 193.715 345.216 192.948L324.074 180.74C322.742 179.971 321.664 178.097 321.67 176.575L321.739 152.272C321.743 150.747 322.826 150.132 324.159 150.901L345.3 163.109Z" fill="#438BE3"></path></g><path d="M334.688 161.912C329.794 159.087 325.825 160.236 325.825 164.482C325.825 166.926 327.142 169.864 329.197 172.458C328.892 176.301 328.491 176.941 328.491 176.941C328.491 176.941 330.264 177.596 333.477 176.513C333.873 176.79 334.276 177.049 334.688 177.287C339.581 180.112 343.55 178.962 343.55 174.717C343.55 170.47 339.581 164.739 334.688 161.912Z" fill="#F78D1B"></path><g opacity="0.4"><path d="M355.93 258.595C357.256 259.36 358.34 261.228 358.336 262.752L358.267 287.055C358.26 288.577 357.17 289.201 355.846 288.434L334.704 276.228C333.372 275.459 332.294 273.585 332.3 272.063L332.37 247.76C332.374 246.236 333.458 245.618 334.79 246.389L355.93 258.595Z" fill="#438BE3"></path></g><path d="M349.529 262.502L328.386 250.297C327.715 249.908 327.108 249.873 326.668 250.129C325.258 250.947 323.849 251.766 322.441 252.586C322.879 252.332 323.486 252.367 324.16 252.754L345.302 264.96C346.628 265.725 347.712 267.593 347.708 269.117L347.638 293.42C347.636 294.175 347.364 294.711 346.93 294.962L351.157 292.505C351.593 292.254 351.863 291.72 351.865 290.963L351.935 266.66C351.937 265.135 350.852 263.266 349.529 262.502Z" fill="white"></path><path d="M345.3 264.959C346.625 265.725 347.71 267.592 347.706 269.117L347.636 293.42C347.63 294.942 346.54 295.566 345.216 294.799L324.074 282.591C322.742 281.822 321.664 279.948 321.67 278.425L321.739 254.122C321.743 252.598 322.826 251.982 324.16 252.752L345.3 264.959Z" fill="white"></path><g opacity="0.2"><path d="M345.3 264.959C346.625 265.725 347.71 267.592 347.706 269.117L347.636 293.42C347.63 294.942 346.54 295.566 345.216 294.799L324.074 282.591C322.742 281.822 321.664 279.948 321.67 278.425L321.739 254.122C321.743 252.598 322.826 251.982 324.16 252.752L345.3 264.959Z" fill="#438BE3"></path></g><path d="M342.783 278.125L341.963 277.652C342.421 277.916 342.797 277.701 342.797 277.171V276.201C342.797 275.672 342.423 275.021 341.963 274.757L339.518 273.345C339.514 273.343 339.51 273.341 339.504 273.339L339.502 273.337L337.955 272.443C337.955 272.443 338.787 270.917 338.683 268.82C338.579 266.723 336.791 264.444 336.181 264.661C335.569 264.877 335.882 266.905 335.125 268.394C334.37 269.886 332.748 270.495 332.748 270.495L332.02 270.074V277.947L333.476 281.439L341.234 285.917C341.693 286.181 342.069 285.966 342.069 285.437V284.467C342.069 283.937 341.693 283.286 341.234 283.022L342.223 283.593C342.681 283.859 343.057 283.642 343.057 283.112V282.143C343.057 281.613 342.683 280.962 342.223 280.698L342.781 281.022C343.239 281.285 343.616 281.069 343.616 280.541V279.571C343.618 279.039 343.241 278.388 342.783 278.125Z" fill="#F78D1B"></path><path d="M325.755 275.185C325.755 275.714 326.132 276.365 326.59 276.629L329.176 278.122C329.634 278.386 330.011 278.172 330.011 277.642V268.844C330.011 268.314 329.634 267.664 329.176 267.4L326.59 265.906C326.132 265.64 325.755 265.857 325.755 266.387V275.185Z" fill="#F78D1B"></path><g opacity="0.4"><path d="M165.595 57.2954C166.921 58.0606 168.005 59.9285 168.001 61.4527L167.932 85.7558C167.926 87.2779 166.835 87.9019 165.511 87.1347L144.369 74.9289C143.037 74.1597 141.959 72.2856 141.965 70.7635L142.035 46.4604C142.039 44.9362 143.123 44.3184 144.455 45.0897L165.595 57.2954Z" fill="#438BE3"></path></g><path d="M159.194 61.203L138.051 48.9972C137.38 48.6085 136.773 48.5737 136.333 48.8294C134.923 49.6478 133.514 50.4661 132.106 51.2865C132.544 51.0329 133.152 51.0676 133.825 51.4543L154.967 63.6601C156.293 64.4252 157.377 66.2931 157.373 67.8173L157.303 92.1204C157.301 92.8753 157.029 93.4114 156.595 93.663L160.822 91.2059C161.258 90.9543 161.528 90.4203 161.53 89.6633L161.6 65.3602C161.604 63.836 160.517 61.9661 159.194 61.203Z" fill="white"></path><path d="M154.965 63.6601C156.291 64.4253 157.375 66.2932 157.371 67.8174L157.301 92.1205C157.295 93.6426 156.205 94.2666 154.881 93.4994L133.739 81.2916C132.407 80.5223 131.329 78.6483 131.335 77.1262L131.404 52.8231C131.409 51.2989 132.493 50.681 133.825 51.4523L154.965 63.6601Z" fill="white"></path><g opacity="0.2"><path d="M154.965 63.6601C156.291 64.4253 157.375 66.2932 157.371 67.8174L157.301 92.1205C157.295 93.6426 156.205 94.2666 154.881 93.4994L133.739 81.2916C132.407 80.5223 131.329 78.6483 131.335 77.1262L131.404 52.8231C131.409 51.2989 132.493 50.681 133.825 51.4523L154.965 63.6601Z" fill="#438BE3"></path></g><path d="M147.868 76.6659L144.353 78.6954L140.838 72.6068C138.821 72.8278 137.47 74.5893 137.47 77.4944L151.237 85.4427C151.235 82.5376 149.885 79.215 147.868 76.6659Z" fill="#2355E7"></path><path d="M149.373 69.8899C149.373 73.0917 147.125 74.3908 144.351 72.7889C141.579 71.189 139.33 67.2936 139.33 64.0918C139.33 60.888 141.579 59.5909 144.351 61.1928C147.127 62.7927 149.373 66.6881 149.373 69.8899Z" fill="#2355E7"></path><g opacity="0.4"><path d="M374.266 214.812C375.591 215.577 376.676 217.445 376.672 218.97L376.602 243.273C376.596 244.795 375.505 245.417 374.182 244.652L353.04 232.444C351.708 231.675 350.629 229.801 350.636 228.278L350.705 203.975C350.709 202.451 351.794 201.835 353.125 202.605L374.266 214.812Z" fill="#438BE3"></path></g><path d="M367.862 218.72L346.72 206.514C346.049 206.125 345.441 206.091 345.001 206.346C343.592 207.165 342.182 207.983 340.774 208.804C341.212 208.55 341.82 208.585 342.493 208.971L363.635 221.177C364.961 221.942 366.045 223.81 366.041 225.334L365.972 249.637C365.97 250.392 365.697 250.928 365.264 251.18L369.49 248.723C369.926 248.471 370.196 247.937 370.198 247.18L370.268 222.877C370.272 221.353 369.186 219.483 367.862 218.72Z" fill="white"></path><path d="M363.633 221.177C364.959 221.942 366.043 223.81 366.039 225.334L365.97 249.637C365.963 251.16 364.873 251.784 363.549 251.016L342.407 238.811C341.075 238.041 339.997 236.167 340.003 234.645L340.073 210.342C340.077 208.818 341.161 208.202 342.493 208.971L363.633 221.177Z" fill="white"></path><g opacity="0.2"><path d="M363.633 221.177C364.959 221.942 366.043 223.81 366.039 225.334L365.97 249.637C365.963 251.16 364.873 251.784 363.549 251.016L342.407 238.811C341.075 238.041 339.997 236.167 340.003 234.645L340.073 210.342C340.077 208.818 341.161 208.202 342.493 208.971L363.633 221.177Z" fill="#438BE3"></path></g><path d="M360.159 232.065C359.985 231.036 359.668 229.987 359.236 228.964L360.104 227.945L358.502 225.171L357.186 225.412C356.515 224.526 355.765 223.728 354.961 223.063L354.643 221.097L352.379 219.79L352.062 221.388C351.258 221.126 350.507 221.056 349.836 221.169L348.518 219.407L346.916 220.332L347.784 222.353C347.352 222.879 347.035 223.563 346.861 224.389L345.318 223.865V226.482L346.861 227.74C347.035 228.769 347.352 229.819 347.784 230.842L346.916 231.861L348.518 234.635L349.834 234.393C350.505 235.279 351.255 236.077 352.059 236.744L352.377 238.708L354.641 240.016L354.959 238.418C355.763 238.68 356.513 238.747 357.184 238.637L358.5 240.398L360.102 239.473L359.234 237.452C359.666 236.926 359.983 236.243 360.157 235.414L361.7 235.938V233.321L360.159 232.065ZM353.51 234.451C351.333 233.195 349.57 230.138 349.57 227.626C349.57 225.113 351.333 224.094 353.51 225.351C355.687 226.607 357.45 229.663 357.45 232.176C357.45 234.69 355.687 235.709 353.51 234.451Z" fill="#2355E7"></path><path d="M230.235 340.941L100.309 265.915C89.7807 271.993 81.2432 286.779 81.2432 298.937C81.2432 304.971 83.3444 309.222 86.7487 311.233L216.675 386.26C213.27 384.249 211.169 379.995 211.169 373.964C211.169 361.805 219.705 347.022 230.235 340.941Z" fill="white"></path><path opacity="0.2" d="M230.235 340.941L100.309 265.915C89.7807 271.993 81.2432 286.779 81.2432 298.937C81.2432 304.971 83.3444 309.222 86.7487 311.233L216.675 386.26C213.27 384.249 211.169 379.995 211.169 373.964C211.169 361.805 219.705 347.022 230.235 340.941Z" fill="#438BE3"></path><defs><linearGradient id="paint0_linear_1461_2552" x1="179.033" y1="29.5788" x2="419.917" y2="477.735" gradientUnits="userSpaceOnUse"><stop stop-color="#2693D1"></stop><stop offset="0.1576" stop-color="#238BCA"></stop><stop offset="0.4042" stop-color="#1B75B6"></stop><stop offset="0.7071" stop-color="#0F5195"></stop><stop offset="1" stop-color="#002770"></stop></linearGradient><linearGradient id="paint1_linear_1461_2552" x1="306.681" y1="178.431" x2="311.844" y2="189.619" gradientUnits="userSpaceOnUse"><stop stop-color="white"></stop><stop offset="1" stop-color="#D0DAE1"></stop></linearGradient><linearGradient id="paint2_linear_1461_2552" x1="290.95" y1="116.613" x2="193.84" y2="284.813" gradientUnits="userSpaceOnUse"><stop offset="0.0303"></stop><stop offset="0.0881" stop-color="white"></stop><stop offset="0.8909" stop-color="white"></stop><stop offset="1"></stop></linearGradient></defs></svg>